<svg height="2350" width="720" xmlns="http://www.w3.org/2000/svg">
<rect height="2350" fill="#555" width="720"></rect>
<text fill="#7f7" font-family="Courier New" font-size="12" xml:space="preserve">
<tspan x="10" y="26">21 megabytes installed</tspan>
<tspan x="10" y="42"></tspan>
<tspan x="10" y="58">node_modules</tspan>
<tspan x="10" y="74">└─┬ browser-perf@1.4.11 </tspan>
<tspan x="10" y="90">  ├── byline@4.2.2 </tspan>
<tspan x="10" y="106">  ├─┬ cli-table@0.3.1 </tspan>
<tspan x="10" y="122">  │ └── colors@1.0.3 </tspan>
<tspan x="10" y="138">  ├─┬ commander@2.9.0 </tspan>
<tspan x="10" y="154">  │ └── graceful-readlink@1.0.1 </tspan>
<tspan x="10" y="170">  ├─┬ debug@2.6.4 </tspan>
<tspan x="10" y="186">  │ └── ms@0.7.3 </tspan>
<tspan x="10" y="202">  ├─┬ event-stream@3.3.4 </tspan>
<tspan x="10" y="218">  │ ├── duplexer@0.1.1 </tspan>
<tspan x="10" y="234">  │ ├── from@0.1.7 </tspan>
<tspan x="10" y="250">  │ ├── map-stream@0.1.0 </tspan>
<tspan x="10" y="266">  │ ├── pause-stream@0.0.11 </tspan>
<tspan x="10" y="282">  │ ├── split@0.3.3 </tspan>
<tspan x="10" y="298">  │ └── stream-combiner@0.0.4 </tspan>
<tspan x="10" y="314">  ├─┬ glob@6.0.4 </tspan>
<tspan x="10" y="330">  │ ├─┬ inflight@1.0.6 </tspan>
<tspan x="10" y="346">  │ │ └── wrappy@1.0.2 </tspan>
<tspan x="10" y="362">  │ ├── inherits@2.0.3 </tspan>
<tspan x="10" y="378">  │ ├─┬ minimatch@3.0.3 </tspan>
<tspan x="10" y="394">  │ │ └─┬ brace-expansion@1.1.7 </tspan>
<tspan x="10" y="410">  │ │   ├── balanced-match@0.4.2 </tspan>
<tspan x="10" y="426">  │ │   └── concat-map@0.0.1 </tspan>
<tspan x="10" y="442">  │ ├── once@1.4.0 </tspan>
<tspan x="10" y="458">  │ └── path-is-absolute@1.0.1 </tspan>
<tspan x="10" y="474">  ├── jsmin@1.0.1 </tspan>
<tspan x="10" y="490">  ├─┬ JSONStream@1.3.1 </tspan>
<tspan x="10" y="506">  │ ├── jsonparse@1.3.0 </tspan>
<tspan x="10" y="522">  │ └── through@2.3.8 </tspan>
<tspan x="10" y="538">  ├── q@1.5.0 </tspan>
<tspan x="10" y="554">  ├─┬ request@2.81.0 </tspan>
<tspan x="10" y="570">  │ ├── aws-sign2@0.6.0 </tspan>
<tspan x="10" y="586">  │ ├── aws4@1.6.0 </tspan>
<tspan x="10" y="602">  │ ├── caseless@0.12.0 </tspan>
<tspan x="10" y="618">  │ ├─┬ combined-stream@1.0.5 </tspan>
<tspan x="10" y="634">  │ │ └── delayed-stream@1.0.0 </tspan>
<tspan x="10" y="650">  │ ├── extend@3.0.0 </tspan>
<tspan x="10" y="666">  │ ├── forever-agent@0.6.1 </tspan>
<tspan x="10" y="682">  │ ├─┬ form-data@2.1.4 </tspan>
<tspan x="10" y="698">  │ │ └── asynckit@0.4.0 </tspan>
<tspan x="10" y="714">  │ ├─┬ har-validator@4.2.1 </tspan>
<tspan x="10" y="730">  │ │ ├─┬ ajv@4.11.7 </tspan>
<tspan x="10" y="746">  │ │ │ ├── co@4.6.0 </tspan>
<tspan x="10" y="762">  │ │ │ └─┬ json-stable-stringify@1.0.1 </tspan>
<tspan x="10" y="778">  │ │ │   └── jsonify@0.0.0 </tspan>
<tspan x="10" y="794">  │ │ └── har-schema@1.0.5 </tspan>
<tspan x="10" y="810">  │ ├─┬ hawk@3.1.3 </tspan>
<tspan x="10" y="826">  │ │ ├── boom@2.10.1 </tspan>
<tspan x="10" y="842">  │ │ ├── cryptiles@2.0.5 </tspan>
<tspan x="10" y="858">  │ │ ├── hoek@2.16.3 </tspan>
<tspan x="10" y="874">  │ │ └── sntp@1.0.9 </tspan>
<tspan x="10" y="890">  │ ├─┬ http-signature@1.1.1 </tspan>
<tspan x="10" y="906">  │ │ ├── assert-plus@0.2.0 </tspan>
<tspan x="10" y="922">  │ │ ├─┬ jsprim@1.4.0 </tspan>
<tspan x="10" y="938">  │ │ │ ├── assert-plus@1.0.0 </tspan>
<tspan x="10" y="954">  │ │ │ ├── extsprintf@1.0.2 </tspan>
<tspan x="10" y="970">  │ │ │ ├── json-schema@0.2.3 </tspan>
<tspan x="10" y="986">  │ │ │ └── verror@1.3.6 </tspan>
<tspan x="10" y="1002">  │ │ └─┬ sshpk@1.13.0 </tspan>
<tspan x="10" y="1018">  │ │   ├── asn1@0.2.3 </tspan>
<tspan x="10" y="1034">  │ │   ├── assert-plus@1.0.0 </tspan>
<tspan x="10" y="1050">  │ │   ├── bcrypt-pbkdf@1.0.1 </tspan>
<tspan x="10" y="1066">  │ │   ├─┬ dashdash@1.14.1 </tspan>
<tspan x="10" y="1082">  │ │   │ └── assert-plus@1.0.0 </tspan>
<tspan x="10" y="1098">  │ │   ├── ecc-jsbn@0.1.1 </tspan>
<tspan x="10" y="1114">  │ │   ├─┬ getpass@0.1.6 </tspan>
<tspan x="10" y="1130">  │ │   │ └── assert-plus@1.0.0 </tspan>
<tspan x="10" y="1146">  │ │   ├── jodid25519@1.0.2 </tspan>
<tspan x="10" y="1162">  │ │   ├── jsbn@0.1.1 </tspan>
<tspan x="10" y="1178">  │ │   └── tweetnacl@0.14.5 </tspan>
<tspan x="10" y="1194">  │ ├── is-typedarray@1.0.0 </tspan>
<tspan x="10" y="1210">  │ ├── isstream@0.1.2 </tspan>
<tspan x="10" y="1226">  │ ├── json-stringify-safe@5.0.1 </tspan>
<tspan x="10" y="1242">  │ ├─┬ mime-types@2.1.15 </tspan>
<tspan x="10" y="1258">  │ │ └── mime-db@1.27.0 </tspan>
<tspan x="10" y="1274">  │ ├── oauth-sign@0.8.2 </tspan>
<tspan x="10" y="1290">  │ ├── performance-now@0.2.0 </tspan>
<tspan x="10" y="1306">  │ ├── qs@6.4.0 </tspan>
<tspan x="10" y="1322">  │ ├── safe-buffer@5.0.1 </tspan>
<tspan x="10" y="1338">  │ ├── stringstream@0.0.5 </tspan>
<tspan x="10" y="1354">  │ ├─┬ tough-cookie@2.3.2 </tspan>
<tspan x="10" y="1370">  │ │ └── punycode@1.4.1 </tspan>
<tspan x="10" y="1386">  │ ├── tunnel-agent@0.6.0 </tspan>
<tspan x="10" y="1402">  │ └── uuid@3.0.1 </tspan>
<tspan x="10" y="1418">  └─┬ wd@0.4.0 </tspan>
<tspan x="10" y="1434">    ├─┬ archiver@0.14.4 </tspan>
<tspan x="10" y="1450">    │ ├── async@0.9.2 </tspan>
<tspan x="10" y="1466">    │ ├── buffer-crc32@0.2.13 </tspan>
<tspan x="10" y="1482">    │ ├─┬ glob@4.3.5 </tspan>
<tspan x="10" y="1498">    │ │ └── minimatch@2.0.10 </tspan>
<tspan x="10" y="1514">    │ ├── lazystream@0.1.0 </tspan>
<tspan x="10" y="1530">    │ ├── lodash@3.2.0 </tspan>
<tspan x="10" y="1546">    │ ├─┬ readable-stream@1.0.34 </tspan>
<tspan x="10" y="1562">    │ │ ├── core-util-is@1.0.2 </tspan>
<tspan x="10" y="1578">    │ │ ├── isarray@0.0.1 </tspan>
<tspan x="10" y="1594">    │ │ └── string_decoder@0.10.31 </tspan>
<tspan x="10" y="1610">    │ ├─┬ tar-stream@1.1.5 </tspan>
<tspan x="10" y="1626">    │ │ ├── end-of-stream@1.4.0 </tspan>
<tspan x="10" y="1642">    │ │ └── xtend@4.0.1 </tspan>
<tspan x="10" y="1658">    │ └─┬ zip-stream@0.5.2 </tspan>
<tspan x="10" y="1674">    │   ├─┬ compress-commons@0.2.9 </tspan>
<tspan x="10" y="1690">    │   │ ├── crc32-stream@0.3.4 </tspan>
<tspan x="10" y="1706">    │   │ └── node-int64@0.3.3 </tspan>
<tspan x="10" y="1722">    │   └── lodash@3.2.0 </tspan>
<tspan x="10" y="1738">    ├── async@1.0.0 </tspan>
<tspan x="10" y="1754">    ├── lodash@3.9.3 </tspan>
<tspan x="10" y="1770">    ├── q@1.4.1 </tspan>
<tspan x="10" y="1786">    ├─┬ request@2.55.0 </tspan>
<tspan x="10" y="1802">    │ ├── aws-sign2@0.5.0 </tspan>
<tspan x="10" y="1818">    │ ├── bl@0.9.5 </tspan>
<tspan x="10" y="1834">    │ ├── caseless@0.9.0 </tspan>
<tspan x="10" y="1850">    │ ├─┬ combined-stream@0.0.7 </tspan>
<tspan x="10" y="1866">    │ │ └── delayed-stream@0.0.5 </tspan>
<tspan x="10" y="1882">    │ ├─┬ form-data@0.2.0 </tspan>
<tspan x="10" y="1898">    │ │ └── async@0.9.2 </tspan>
<tspan x="10" y="1914">    │ ├─┬ har-validator@1.8.0 </tspan>
<tspan x="10" y="1930">    │ │ ├── bluebird@2.11.0 </tspan>
<tspan x="10" y="1946">    │ │ ├─┬ chalk@1.1.3 </tspan>
<tspan x="10" y="1962">    │ │ │ ├── ansi-styles@2.2.1 </tspan>
<tspan x="10" y="1978">    │ │ │ ├── escape-string-regexp@1.0.5 </tspan>
<tspan x="10" y="1994">    │ │ │ ├─┬ has-ansi@2.0.0 </tspan>
<tspan x="10" y="2010">    │ │ │ │ └── ansi-regex@2.1.1 </tspan>
<tspan x="10" y="2026">    │ │ │ ├── strip-ansi@3.0.1 </tspan>
<tspan x="10" y="2042">    │ │ │ └── supports-color@2.0.0 </tspan>
<tspan x="10" y="2058">    │ │ └─┬ is-my-json-valid@2.16.0 </tspan>
<tspan x="10" y="2074">    │ │   ├── generate-function@2.0.0 </tspan>
<tspan x="10" y="2090">    │ │   ├─┬ generate-object-property@1.2.0 </tspan>
<tspan x="10" y="2106">    │ │   │ └── is-property@1.0.2 </tspan>
<tspan x="10" y="2122">    │ │   └── jsonpointer@4.0.1 </tspan>
<tspan x="10" y="2138">    │ ├── hawk@2.3.1 </tspan>
<tspan x="10" y="2154">    │ ├─┬ http-signature@0.10.1 </tspan>
<tspan x="10" y="2170">    │ │ ├── asn1@0.1.11 </tspan>
<tspan x="10" y="2186">    │ │ ├── assert-plus@0.1.5 </tspan>
<tspan x="10" y="2202">    │ │ └── ctype@0.5.3 </tspan>
<tspan x="10" y="2218">    │ ├─┬ mime-types@2.0.14 </tspan>
<tspan x="10" y="2234">    │ │ └── mime-db@1.12.0 </tspan>
<tspan x="10" y="2250">    │ ├── node-uuid@1.4.8 </tspan>
<tspan x="10" y="2266">    │ ├── oauth-sign@0.6.0 </tspan>
<tspan x="10" y="2282">    │ ├── qs@2.4.2 </tspan>
<tspan x="10" y="2298">    │ └── tunnel-agent@0.4.3 </tspan>
<tspan x="10" y="2314">    ├── underscore.string@3.0.3 </tspan>
<tspan x="10" y="2330">    └── vargs@0.1.0</tspan>
</text>
</svg>
